<svg aria-hidden="true" style="position:absolute;overflow:hidden" xmlns="http://www.w3.org/2000/svg"><defs><symbol id="icon-telegram" viewBox="0 0 32 32"><path d="M16 0A16.003 16.003 0 0 0-.001 16 16.006 16.006 0 0 0 16 32a16.001 16.001 0 0 0 0-32z"/><path fill="#008baa" style="fill:var(--color2,#008baa)" d="M7.242 15.831c4.665-2.032 7.775-3.372 9.33-4.019 4.445-1.848 5.367-2.169 5.97-2.18.133-.002.427.031.62.186.16.131.205.309.227.433.02.124.047.408.025.63-.24 2.53-1.282 8.669-1.813 11.503-.223 1.199-.665 1.601-1.093 1.64-.93.085-1.635-.614-2.535-1.204-1.407-.923-2.203-1.498-3.57-2.398-1.58-1.041-.555-1.613.345-2.548.235-.245 4.33-3.969 4.408-4.306.01-.042.02-.2-.075-.283-.093-.083-.23-.055-.33-.032-.142.032-2.39 1.519-6.75 4.461-.637.439-1.215.652-1.735.641-.57-.012-1.67-.323-2.487-.588-1-.326-1.798-.498-1.728-1.051.035-.288.433-.583 1.19-.884z"/></symbol><symbol id="icon-facebook" viewBox="0 0 32 32"><path d="M16.001 0C7.163 0 0 7.163 0 16.001 0 24.837 7.163 32 16.001 32 24.837 32 32 24.837 32 16.001 32 7.163 24.837 0 16.001 0zm6.103 8.147-2.212.002c-1.736 0-2.072.825-2.072 2.035v2.668h4.138l-.002 4.18h-4.137v10.723h-4.316V17.031H9.895v-4.178h3.608V9.771c0-3.576 2.185-5.524 5.376-5.524l3.226.005v3.897h-.002z"/></symbol><symbol id="icon-logo-suntour" viewBox="0 0 130 32"><path d="M23.052 22.605c0 1.43-.284 2.702-.849 3.819-.566 1.117-1.348 2.055-2.346 2.815s-2.197 1.34-3.596 1.742c-1.4.402-2.919.604-4.557.604-2.174 0-4.221-.305-6.143-.916-1.921-.61-3.775-1.645-5.562-3.105l2.859-3.708c1.34.983 2.762 1.75 4.266 2.301s3.015.827 4.534.827c2.025 0 3.536-.408 4.535-1.227.997-.817 1.497-1.85 1.497-3.1 0-.861-.201-1.561-.603-2.096s-.946-.981-1.631-1.338c-.685-.356-1.467-.639-2.345-.847s-1.795-.431-2.747-.67c-1.192-.267-2.346-.609-3.462-1.025s-2.099-.959-2.949-1.628c-.849-.669-1.534-1.487-2.055-2.452s-.782-2.149-.782-3.546c0-1.308.238-2.514.715-3.613S2.993 3.39 3.886 2.587 5.851 1.153 7.102.692C8.353.231 9.753 0 11.301 0c1.846 0 3.67.185 5.472.553s3.522 1.07 5.16 2.102l-2.278 4.18c-1.37-.833-2.733-1.414-4.088-1.742a17.014 17.014 0 0 0-3.999-.491c-.715 0-1.393.09-2.033.268s-1.207.446-1.698.804c-.491.357-.886.811-1.184 1.362s-.446 1.199-.446 1.944c0 .745.194 1.37.581 1.877s.901.931 1.541 1.273c.64.343 1.37.625 2.189.849s1.675.425 2.569.604c1.459.328 2.799.715 4.02 1.161s2.271 1.02 3.149 1.72c.878.7 1.564 1.541 2.055 2.524s.738 2.188.738 3.617zM57.739 11.035c-1.144-1.4-2.873-2.1-5.189-2.1-.386 0-.809.024-1.269.068a7.99 7.99 0 0 0-1.559.338c-.58.181-1.232.437-1.959.767s-1.536.767-2.427 1.308l-.447-2.213H40.6v15.463c-2.3 1.604-4.272 2.406-5.916 2.406-.958 0-1.78-.298-2.469-.894-.688-.595-1.032-1.637-1.032-3.127V9.202h-4.736v14.251c0 2.473.61 4.446 1.832 5.919 1.221 1.475 3.038 2.212 5.45 2.212.744 0 1.645-.142 2.703-.424s2.45-.945 4.177-1.988l.443 2.145h4.293V15.759c1.128-.71 2.197-1.258 3.208-1.644 1.012-.386 1.921-.579 2.725-.579.983 0 1.802.289 2.457.869s.983 1.628.983 3.142v13.77h4.735V16.842c.001-2.47-.571-4.406-1.713-5.806zM68.307 2.502v28.815h-2.144V2.502h-9.65V.536h21.354v1.966h-9.56zM93.594 23.588c0 2.502-.792 4.46-2.375 5.874s-3.69 2.122-6.317 2.122c-1.285 0-2.457-.187-3.516-.559s-1.972-.908-2.732-1.608c-.761-.699-1.351-1.534-1.769-2.502s-.627-2.062-.627-3.284V16.93c0-1.191.231-2.271.694-3.239.463-.967 1.089-1.787 1.881-2.457s1.711-1.191 2.755-1.563a9.944 9.944 0 0 1 3.361-.559 10.3 10.3 0 0 1 3.428.559c1.06.373 1.979.894 2.754 1.563a6.946 6.946 0 0 1 1.814 2.457c.433.968.65 2.049.65 3.239v6.657h.001zm-2.011-6.06c0-1.194-.201-2.209-.603-3.045-.401-.835-.916-1.515-1.541-2.038s-1.335-.903-2.124-1.142a8.063 8.063 0 0 0-2.345-.358c-.804 0-1.608.12-2.412.358a5.99 5.99 0 0 0-2.145 1.142c-.625.523-1.139 1.202-1.54 2.038s-.603 1.852-.603 3.045v5.597c0 1.224.185 2.254.559 3.089.372.837.863 1.516 1.473 2.038s1.318.903 2.123 1.142a8.884 8.884 0 0 0 2.545.358c.895 0 1.735-.126 2.524-.38s1.492-.65 2.102-1.187 1.095-1.223 1.452-2.059c.356-.837.535-1.837.535-3.001v-5.597zM113.244 31.317l-.351-3.038a47.005 47.005 0 0 1-2.703 1.563c-.789.418-1.504.76-2.144 1.028a9.218 9.218 0 0 1-1.765.558 8.209 8.209 0 0 1-1.564.156c-2.264 0-4.006-.618-5.227-1.854s-1.832-3.119-1.832-5.652V9.38h2.01v14.175c0 2.17.462 3.724 1.385 4.66s2.203 1.403 3.841 1.403c1.072 0 2.308-.318 3.708-.958 1.4-.639 2.829-1.478 4.289-2.519V9.38h2.01v21.936h-1.659zM130.182 11.436c-1.996.209-3.649.641-4.959 1.296-1.311.655-2.337 1.236-3.082 1.743v16.842h-2.01V9.381h1.697l.313 3.262h.044a15.14 15.14 0 0 1 1.586-1.184 16.781 16.781 0 0 1 1.988-1.117 13.273 13.273 0 0 1 2.212-.827 12.256 12.256 0 0 1 2.211-.402v2.323h.001z"/></symbol><symbol id="icon-star-stroke" viewBox="0 0 33 32"><path fill="#ddd" style="fill:var(--color1,#ddd)" d="m20.518 12.251 12.713-.028-10.302 7.543L26.884 32l-10.269-7.589L6.346 32l3.955-12.234-10.302-7.543 12.713.028L16.614 0l3.902 12.251zm5.743 2.273-7.346.016-2.299-7.219-2.299 7.219-7.346-.016 5.952 4.359-2.313 7.155 6.006-4.439 6.006 4.439-2.313-7.155 5.952-4.359z"/></symbol><symbol id="icon-star" viewBox="0 0 33 32"><path fill="#f90" style="fill:var(--color2,#f90)" d="m16.615 0 3.902 12.251 12.713-.028-10.302 7.543L26.883 32l-10.269-7.589L6.345 32 10.3 19.766-.002 12.223l12.713.028L16.613 0z"/></symbol></defs></svg>