<svg aria-hidden="true" style="position: absolute; overflow: hidden;" version="1.1" xmlns="http://www.w3.org/2000/svg" xmlns:xlink="http://www.w3.org/1999/xlink">
<defs>
<symbol id="icon-telegram" viewBox="0 0 32 32">
<path d="M16 0c-4.242 0-8.315 1.687-11.313 4.686-3.001 3.001-4.687 7.070-4.688 11.314 0 4.242 1.688 8.314 4.688 11.314 2.998 3 7.070 4.686 11.313 4.686s8.315-1.687 11.313-4.686c3-3 4.688-7.072 4.688-11.314s-1.688-8.314-4.688-11.314c-2.997-2.999-7.070-4.686-11.313-4.686z"></path>
<path fill="#008baa" style="fill: var(--color2, #008baa)" d="M7.242 15.831c4.665-2.032 7.775-3.372 9.33-4.019 4.445-1.848 5.367-2.169 5.97-2.18 0.133-0.002 0.427 0.031 0.62 0.186 0.16 0.131 0.205 0.309 0.227 0.433 0.020 0.124 0.047 0.408 0.025 0.63-0.24 2.53-1.282 8.669-1.813 11.503-0.223 1.199-0.665 1.601-1.093 1.64-0.93 0.085-1.635-0.614-2.535-1.204-1.407-0.923-2.203-1.498-3.57-2.398-1.58-1.041-0.555-1.613 0.345-2.548 0.235-0.245 4.33-3.969 4.408-4.306 0.010-0.042 0.020-0.2-0.075-0.283-0.093-0.083-0.23-0.055-0.33-0.032-0.142 0.032-2.39 1.519-6.75 4.461-0.637 0.439-1.215 0.652-1.735 0.641-0.57-0.012-1.67-0.323-2.487-0.588-1-0.326-1.798-0.498-1.728-1.051 0.035-0.288 0.433-0.583 1.19-0.884z"></path>
</symbol>
<symbol id="icon-facebook" viewBox="0 0 32 32">
<path d="M16.001 0c-8.838 0-16.001 7.163-16.001 16.001 0 8.836 7.163 15.999 16.001 15.999 8.836 0 15.999-7.163 15.999-15.999 0-8.838-7.163-16.001-15.999-16.001zM22.104 8.147l-2.212 0.002c-1.736 0-2.072 0.825-2.072 2.035v2.668h4.138l-0.002 4.18h-4.137v10.723h-4.316v-10.724h-3.608v-4.178h3.608v-3.082c0-3.576 2.185-5.524 5.376-5.524l3.226 0.005v3.897h-0.002z"></path>
</symbol>
<symbol id="icon-logo-suntour" viewBox="0 0 130 32">
<path d="M23.052 22.605c0 1.43-0.284 2.702-0.849 3.819-0.566 1.117-1.348 2.055-2.346 2.815s-2.197 1.34-3.596 1.742c-1.4 0.402-2.919 0.604-4.557 0.604-2.174 0-4.221-0.305-6.143-0.916-1.921-0.61-3.775-1.645-5.562-3.105l2.859-3.708c1.34 0.983 2.762 1.75 4.266 2.301s3.015 0.827 4.534 0.827c2.025 0 3.536-0.408 4.535-1.227 0.997-0.817 1.497-1.85 1.497-3.1 0-0.861-0.201-1.561-0.603-2.096s-0.946-0.981-1.631-1.338c-0.685-0.356-1.467-0.639-2.345-0.847s-1.795-0.431-2.747-0.67c-1.192-0.267-2.346-0.609-3.462-1.025s-2.099-0.959-2.949-1.628c-0.849-0.669-1.534-1.487-2.055-2.452s-0.782-2.149-0.782-3.546c0-1.308 0.238-2.514 0.715-3.613s1.162-2.052 2.055-2.855 1.965-1.434 3.216-1.895c1.251-0.461 2.651-0.692 4.199-0.692 1.846 0 3.67 0.185 5.472 0.553s3.522 1.070 5.16 2.102l-2.278 4.18c-1.37-0.833-2.733-1.414-4.088-1.742-1.356-0.327-2.688-0.491-3.999-0.491-0.715 0-1.393 0.090-2.033 0.268s-1.207 0.446-1.698 0.804c-0.491 0.357-0.886 0.811-1.184 1.362s-0.446 1.199-0.446 1.944c0 0.745 0.194 1.37 0.581 1.877s0.901 0.931 1.541 1.273c0.64 0.343 1.37 0.625 2.189 0.849s1.675 0.425 2.569 0.604c1.459 0.328 2.799 0.715 4.020 1.161s2.271 1.020 3.149 1.72c0.878 0.7 1.564 1.541 2.055 2.524s0.738 2.188 0.738 3.617z"></path>
<path d="M57.739 11.035c-1.144-1.4-2.873-2.1-5.189-2.1-0.386 0-0.809 0.024-1.269 0.068-0.461 0.045-0.98 0.159-1.559 0.338-0.58 0.181-1.232 0.437-1.959 0.767s-1.536 0.767-2.427 1.308l-0.447-2.213h-4.289v15.463c-2.3 1.604-4.272 2.406-5.916 2.406-0.958 0-1.78-0.298-2.469-0.894-0.688-0.595-1.032-1.637-1.032-3.127v-13.849h-4.736v14.251c0 2.473 0.61 4.446 1.832 5.919 1.221 1.475 3.038 2.212 5.45 2.212 0.744 0 1.645-0.142 2.703-0.424s2.45-0.945 4.177-1.988l0.443 2.145h4.293v-15.558c1.128-0.71 2.197-1.258 3.208-1.644 1.012-0.386 1.921-0.579 2.725-0.579 0.983 0 1.802 0.289 2.457 0.869s0.983 1.628 0.983 3.142v13.77h4.735v-14.475c0.001-2.47-0.571-4.406-1.713-5.806z"></path>
<path d="M68.307 2.502v28.815h-2.144v-28.815h-9.65v-1.966h21.354v1.966h-9.56z"></path>
<path d="M93.594 23.588c0 2.502-0.792 4.46-2.375 5.874s-3.69 2.122-6.317 2.122c-1.285 0-2.457-0.187-3.516-0.559s-1.972-0.908-2.732-1.608c-0.761-0.699-1.351-1.534-1.769-2.502s-0.627-2.062-0.627-3.284v-6.701c0-1.191 0.231-2.271 0.694-3.239 0.463-0.967 1.089-1.787 1.881-2.457s1.711-1.191 2.755-1.563c1.045-0.372 2.164-0.559 3.361-0.559 1.223 0 2.366 0.187 3.428 0.559 1.060 0.373 1.979 0.894 2.754 1.563 0.777 0.67 1.381 1.49 1.814 2.457 0.433 0.968 0.65 2.049 0.65 3.239v6.657h0.001zM91.583 17.528c0-1.194-0.201-2.209-0.603-3.045-0.401-0.835-0.916-1.515-1.541-2.038s-1.335-0.903-2.124-1.142c-0.79-0.239-1.571-0.358-2.345-0.358-0.804 0-1.608 0.12-2.412 0.358-0.804 0.24-1.518 0.62-2.145 1.142-0.625 0.523-1.139 1.202-1.54 2.038s-0.603 1.852-0.603 3.045v5.597c0 1.224 0.185 2.254 0.559 3.089 0.372 0.837 0.863 1.516 1.473 2.038s1.318 0.903 2.123 1.142c0.804 0.239 1.652 0.358 2.545 0.358 0.895 0 1.735-0.126 2.524-0.38s1.492-0.65 2.102-1.187 1.095-1.223 1.452-2.059c0.356-0.837 0.535-1.837 0.535-3.001v-5.597z"></path>
<path d="M113.244 31.317l-0.351-3.038c-1.013 0.625-1.914 1.147-2.703 1.563-0.789 0.418-1.504 0.76-2.144 1.028-0.641 0.268-1.229 0.453-1.765 0.558-0.536 0.104-1.058 0.156-1.564 0.156-2.264 0-4.006-0.618-5.227-1.854s-1.832-3.119-1.832-5.652v-14.698h2.010v14.175c0 2.17 0.462 3.724 1.385 4.66s2.203 1.403 3.841 1.403c1.072 0 2.308-0.318 3.708-0.958 1.4-0.639 2.829-1.478 4.289-2.519v-16.761h2.010v21.936h-1.659z"></path>
<path d="M130.182 11.436c-1.996 0.209-3.649 0.641-4.959 1.296-1.311 0.655-2.337 1.236-3.082 1.743v16.842h-2.010v-21.936h1.697l0.313 3.262h0.044c0.447-0.387 0.975-0.782 1.586-1.184 0.609-0.402 1.273-0.774 1.988-1.117 0.715-0.342 1.452-0.618 2.212-0.827 0.759-0.208 1.497-0.342 2.211-0.402v2.323h0.001z"></path>
</symbol>
<symbol id="icon-star-stroke" viewBox="0 0 33 32">
<path fill="#ddd" style="fill: var(--color1, #ddd)" d="M20.518 12.251l12.713-0.028-10.302 7.543 3.955 12.234-10.269-7.589-10.269 7.589 3.955-12.234-10.302-7.543 12.713 0.028 3.902-12.251 3.902 12.251zM26.261 14.524l-7.346 0.016-2.299-7.219-2.299 7.219-7.346-0.016 5.952 4.359-2.313 7.155 6.006-4.439 6.006 4.439-2.313-7.155 5.952-4.359z"></path>
</symbol>
<symbol id="icon-star" viewBox="0 0 33 32">
<path fill="#f90" style="fill: var(--color2, #f90)" d="M16.615 0l3.902 12.251 12.713-0.028-10.302 7.543 3.955 12.234-10.269-7.589-10.269 7.589 3.955-12.234-10.302-7.543 12.713 0.028 3.902-12.251z"></path>
</symbol>
</defs>
</svg>
